<svg width="22" height="19" viewBox="0 0 22 19" fill="none" xmlns="http://www.w3.org/2000/svg">
<path d="M14.5 4.6875H3.83812L6.97675 1.54975L5.75 0.3125L0.5 5.5625L5.75 10.8125L6.97675 9.57438L3.84075 6.4375H14.5C15.8924 6.4375 17.2277 6.99062 18.2123 7.97519C19.1969 8.95976 19.75 10.2951 19.75 11.6875C19.75 13.0799 19.1969 14.4152 18.2123 15.3998C17.2277 16.3844 15.8924 16.9375 14.5 16.9375H7.5V18.6875H14.5C16.3565 18.6875 18.137 17.95 19.4497 16.6372C20.7625 15.3245 21.5 13.544 21.5 11.6875C21.5 9.83098 20.7625 8.05051 19.4497 6.73775C18.137 5.425 16.3565 4.6875 14.5 4.6875Z" fill="#FF8A00"/>
</svg>
