<svg width="22" height="19" viewBox="0 0 22 19" fill="none" xmlns="http://www.w3.org/2000/svg">
<path d="M7.5 4.6875H18.1619L15.0232 1.54975L16.25 0.3125L21.5 5.5625L16.25 10.8125L15.0232 9.57438L18.1593 6.4375H7.5C6.10761 6.4375 4.77225 6.99062 3.78769 7.97519C2.80312 8.95976 2.25 10.2951 2.25 11.6875C2.25 13.0799 2.80312 14.4152 3.78769 15.3998C4.77225 16.3844 6.10761 16.9375 7.5 16.9375H14.5V18.6875H7.5C5.64348 18.6875 3.86301 17.95 2.55025 16.6372C1.2375 15.3245 0.5 13.544 0.5 11.6875C0.5 9.83098 1.2375 8.05051 2.55025 6.73775C3.86301 5.425 5.64348 4.6875 7.5 4.6875Z" fill="#FF8A00"/>
</svg>
